<svg width="20" height="20" viewBox="0 0 20 20" fill="none" xmlns="http://www.w3.org/2000/svg">
<path d="M19.7154 7.66246L10.4846 0.171902C10.2017 -0.0580112 9.79573 -0.0571565 9.51368 0.173612L0.282906 7.70947C0.104273 7.85562 0 8.07442 0 8.30519V19.2308C0 19.6556 0.344444 20 0.769231 20H6.92308C7.34786 20 7.69231 19.6556 7.69231 19.2308V12.3077H12.3077V19.2308C12.3077 19.6556 12.6521 20 13.0769 20H19.2308C19.6556 20 20 19.6556 20 19.2308V8.25989C20 8.02827 19.8957 7.80861 19.7154 7.66246ZM18.4615 18.4615H13.8462V11.5385C13.8462 11.1137 13.5017 10.7693 13.0769 10.7693H6.92308C6.49829 10.7693 6.15385 11.1137 6.15385 11.5385V18.4615H1.53846V8.67015L10.0017 1.76078L18.4615 8.6257V18.4615Z" fill="#018CF1"/>
</svg>
