<svg width="20" height="20" viewBox="0 0 20 20" fill="none" xmlns="http://www.w3.org/2000/svg">
<path d="M13.8462 7.69235C13.8462 5.57183 12.1205 3.84619 10 3.84619C7.87951 3.84619 6.15387 5.57183 6.15387 7.69235C6.15387 9.81286 7.87951 11.5385 10 11.5385C12.1205 11.5385 13.8462 9.81286 13.8462 7.69235ZM7.69233 7.69235C7.69233 6.4197 8.72737 5.38465 10 5.38465C11.2727 5.38465 12.3077 6.4197 12.3077 7.69235C12.3077 8.96499 11.2727 10 10 10C8.72737 10 7.69233 8.96499 7.69233 7.69235Z" fill="#018CF1"/>
<path d="M9.99999 20C10.1966 20 10.394 19.9248 10.5436 19.7744C10.8359 19.4821 17.6923 12.5701 17.6923 7.69231C17.6923 3.45043 14.2419 0 9.99999 0C5.75811 0 2.30768 3.45043 2.30768 7.69231C2.30768 12.5701 9.16409 19.4829 9.4564 19.7744C9.60682 19.9248 9.8034 20 9.99999 20ZM3.84614 7.69231C3.84614 4.29915 6.60682 1.53846 9.99999 1.53846C13.3931 1.53846 16.1538 4.29915 16.1538 7.69231C16.1538 9.40855 15.0137 11.8376 12.8573 14.7162C11.7547 16.1889 10.6393 17.4333 9.99999 18.1188C9.36067 17.4333 8.24528 16.1889 7.14272 14.7162C4.98631 11.8376 3.84614 9.40855 3.84614 7.69231Z" fill="#018CF1"/>
</svg>
