<svg width="20" height="20" viewBox="0 0 20 20" fill="none" xmlns="http://www.w3.org/2000/svg">
<path d="M19.2306 5.38464H6.15381C5.72902 5.38464 5.38458 5.72909 5.38458 6.15387V16.1539C5.38458 16.5786 5.72902 16.9231 6.15381 16.9231H13.176L18.8734 19.912C18.9862 19.971 19.1084 20 19.2306 20C19.4272 20 19.6221 19.9248 19.7691 19.7804C20.0076 19.5462 20.0682 19.1855 19.9187 18.8872L18.9366 16.9239H19.2306C19.6554 16.9239 19.9999 16.5795 19.9999 16.1547V6.15473C19.9999 5.72994 19.6554 5.3855 19.2306 5.3855V5.38464ZM18.4614 15.3846H17.6922C17.4255 15.3846 17.1777 15.5231 17.0375 15.7496C16.8973 15.9761 16.8845 16.2598 17.0042 16.4983L17.4759 17.4419L13.7221 15.4727C13.6119 15.4145 13.4897 15.3846 13.3649 15.3846H6.92218V6.9231H18.4606V15.3846H18.4614Z" fill="#018CF1"/>
<path d="M14.6153 3.84615V0.76923C14.6153 0.344444 14.2708 0 13.8461 0H0.769225C0.344442 0 0 0.344444 0 0.76923V10.7692C0 11.194 0.344442 11.5384 0.769225 11.5384H1.06324L0.0811918 13.5017C-0.087183 13.8393 0.0136743 14.2496 0.319655 14.4701C0.454697 14.5675 0.611961 14.6154 0.769225 14.6154C0.967514 14.6154 1.16409 14.5393 1.31367 14.3897L4.39057 11.3128C4.53501 11.1684 4.61621 10.9726 4.61621 10.7692V4.61538H13.8469C14.2717 4.61538 14.6161 4.27094 14.6161 3.84615H14.6153Z" fill="#018CF1"/>
</svg>
