<svg width="20" height="20" viewBox="0 0 20 20" fill="none" xmlns="http://www.w3.org/2000/svg">
<path d="M19.2308 0H0.769231C0.344444 0 0 0.344444 0 0.76923V14.6154C0 15.0402 0.344444 15.3846 0.769231 15.3846H5.38462V19.2307C5.38462 19.5307 5.55983 19.8042 5.83248 19.9299C5.93504 19.9769 6.04444 20 6.15385 20C6.33419 20 6.51282 19.9367 6.6547 19.8145L11.8231 15.3846H19.2308C19.6556 15.3846 20 15.0402 20 14.6154V0.76923C20 0.344444 19.6556 0 19.2308 0ZM18.4615 13.8461H11.5385C11.3547 13.8461 11.1769 13.9119 11.0376 14.0316L6.92308 17.5581V14.6154C6.92308 14.1906 6.57863 13.8461 6.15385 13.8461H1.53846V1.53846H18.4615V13.8461Z" fill="#525B62"/>
</svg>
