<svg width="20" height="20" viewBox="0 0 20 20" fill="none" xmlns="http://www.w3.org/2000/svg">
<path d="M2.30769 12.3076C3.5822 12.3076 4.61538 11.2745 4.61538 9.99995C4.61538 8.72545 3.5822 7.69226 2.30769 7.69226C1.03319 7.69226 0 8.72545 0 9.99995C0 11.2745 1.03319 12.3076 2.30769 12.3076Z" fill="#525B62"/>
<path d="M10 12.3076C11.2745 12.3076 12.3077 11.2745 12.3077 9.99995C12.3077 8.72545 11.2745 7.69226 10 7.69226C8.72551 7.69226 7.69232 8.72545 7.69232 9.99995C7.69232 11.2745 8.72551 12.3076 10 12.3076Z" fill="#525B62"/>
<path d="M17.6923 12.3076C18.9668 12.3076 20 11.2745 20 9.99995C20 8.72545 18.9668 7.69226 17.6923 7.69226C16.4178 7.69226 15.3846 8.72545 15.3846 9.99995C15.3846 11.2745 16.4178 12.3076 17.6923 12.3076Z" fill="#525B62"/>
</svg>
