<svg width="126" height="69" viewBox="0 0 126 69" fill="none" xmlns="http://www.w3.org/2000/svg">
<g clip-path="url(#clip0_1_1745)">
<path d="M28.4943 0H37.8159C38.1866 0 38.5044 0.104308 38.7692 0.365079C39.034 0.62585 39.1929 0.886621 39.1929 1.19955V29.8844C39.1929 30.1973 39.034 30.5102 38.7692 30.7188C38.5044 30.9796 38.1866 31.0839 37.8159 31.0839H28.5473C28.1765 31.0839 27.8588 30.9796 27.5939 30.7188C27.3291 30.5102 27.1702 30.1973 27.1702 29.8844V16.1156L23.4628 22.5306C23.2509 22.8957 22.9332 23.1565 22.5624 23.3651C22.1387 23.5737 21.768 23.678 21.3443 23.678H17.8487C17.2661 23.678 16.7894 23.5215 16.4187 23.2608C16.0479 23 15.7831 22.7392 15.6772 22.5306L11.9697 16.1156V29.8844C11.9697 30.1973 11.8108 30.5102 11.546 30.7188C11.2812 30.9796 10.9634 31.0839 10.5927 31.0839H1.37705C1.00631 31.0839 0.688525 30.9796 0.423707 30.7188C0.15889 30.5102 0 30.1973 0 29.8844V1.2517C0 0.938775 0.15889 0.62585 0.423707 0.417234C0.688525 0.156463 1.00631 0 1.37705 0H10.6986C11.652 0 12.3934 0.417234 12.9231 1.19955L19.5965 11.839L26.2699 1.2517C26.7995 0.469388 27.488 0.0521542 28.4943 0.0521542V0Z" fill="#018CF1"/>
<path d="M59.1602 22.4785H79.5511C79.9218 22.4785 80.2396 22.5828 80.5044 22.8435C80.7692 23.1043 80.9281 23.3651 80.9281 23.678V29.9365C80.9281 30.2494 80.7692 30.5624 80.5044 30.771C80.2396 31.0317 79.9218 31.1361 79.5511 31.1361H47.2964C46.9256 31.1361 46.6078 31.0317 46.343 30.771C46.0782 30.5624 45.9193 30.2494 45.9193 29.9365V1.2517C45.9193 0.938776 46.0782 0.625851 46.343 0.417234C46.6078 0.208617 46.9256 0.0521545 47.2964 0.0521545H79.0215C79.3922 0.0521545 79.71 0.156463 79.9748 0.417234C80.2396 0.678005 80.3985 0.938776 80.3985 1.2517V7.51021C80.3985 7.82313 80.2396 8.13605 79.9748 8.34467C79.71 8.60544 79.3922 8.70975 79.0215 8.70975H59.1602V11.5261H76.2144C76.5851 11.5261 76.9029 11.6304 77.1677 11.8912C77.4325 12.0998 77.5914 12.4127 77.5914 12.7256V18.5147C77.5914 18.8277 77.4325 19.1406 77.1677 19.3492C76.9029 19.5578 76.5851 19.7143 76.2144 19.7143H59.1602V22.5306V22.4785Z" fill="#018CF1"/>
<path d="M125.364 12.9342V18.2018C125.364 21.1746 124.517 23.678 122.822 25.6599C121.127 27.6417 118.903 29.0499 116.149 29.8844C113.395 30.7188 110.164 31.1361 106.404 31.1361C102.643 31.1361 99.4124 30.7188 96.6583 29.8844C93.9042 29.0499 91.6797 27.6417 89.9849 25.6599C88.29 23.678 87.4426 21.1746 87.4426 18.1497V13.0385C87.4426 8.70975 89.1904 5.42404 92.739 3.23356C96.2875 1.04308 100.842 0 106.456 0C112.071 0 116.625 1.09524 120.174 3.23356C123.723 5.37188 125.47 8.60544 125.47 12.9342H125.364ZM101.16 12.2041V18.932C101.16 20.0794 101.637 20.966 102.537 21.5918C103.438 22.2177 104.762 22.5306 106.351 22.5306C107.939 22.5306 109.211 22.2177 110.164 21.5918C111.117 20.966 111.541 20.0794 111.541 18.932V12.3084C111.541 11.161 111.064 10.2744 110.164 9.64853C109.211 9.02268 107.939 8.70975 106.351 8.70975C104.762 8.70975 103.491 9.02268 102.537 9.64853C101.584 10.2744 101.16 11.161 101.16 12.3084V12.2041Z" fill="#018CF1"/>
<path d="M28.4943 37.864H37.8159C38.1866 37.864 38.5044 37.9683 38.7692 38.229C39.034 38.4898 39.1929 38.7506 39.1929 39.0635V67.7483C39.1929 68.0612 39.034 68.3742 38.7692 68.5828C38.5044 68.8435 38.1866 68.9479 37.8159 68.9479H28.5473C28.1765 68.9479 27.8588 68.8435 27.5939 68.5828C27.3291 68.3742 27.1702 68.0612 27.1702 67.7483V53.9796L23.4628 60.3946C23.2509 60.7596 22.9332 61.0204 22.5624 61.229C22.1387 61.4376 21.768 61.542 21.3443 61.542H17.8487C17.2661 61.542 16.7894 61.3855 16.4187 61.1247C16.0479 60.864 15.7831 60.6032 15.6772 60.3946L11.9697 53.9796V67.7483C11.9697 68.0612 11.8108 68.3742 11.546 68.5828C11.2812 68.8435 10.9634 68.9479 10.5927 68.9479H1.37705C1.00631 68.9479 0.688525 68.8435 0.423707 68.5828C0.15889 68.3742 0 68.0612 0 67.7483V39.0635C0 38.7506 0.15889 38.4376 0.423707 38.229C0.688525 38.0204 1.00631 37.864 1.37705 37.864H10.6986C11.652 37.864 12.3934 38.2812 12.9231 39.0635L19.5965 49.703L26.2699 39.0635C26.7995 38.2812 27.488 37.864 28.4943 37.864Z" fill="#018CF1"/>
<path d="M76.5851 65.8186C73.2484 67.9569 68.6936 69 62.9735 69C57.2535 69 52.6986 67.9048 49.3619 65.8186C46.0252 63.6803 44.3304 60.3424 44.3304 55.805V39.0635C44.3304 38.7506 44.4893 38.4376 44.7541 38.229C45.0189 38.0204 45.3367 37.864 45.7074 37.864H56.3531C56.7238 37.864 57.0416 37.9683 57.3064 38.229C57.5712 38.4376 57.7301 38.7506 57.7301 39.0635V56.4308C57.7301 57.6304 58.2068 58.517 59.1072 59.195C60.0605 59.8209 61.3316 60.1338 62.9205 60.1338C64.5095 60.1338 65.7806 59.8209 66.7339 59.195C67.6873 58.5692 68.111 57.6304 68.111 56.4308V39.0635C68.111 38.7506 68.2699 38.4898 68.5347 38.229C68.7995 37.9683 69.1173 37.864 69.488 37.864H80.1337C80.5044 37.864 80.8222 37.9683 81.087 38.229C81.3518 38.4376 81.5107 38.7506 81.5107 39.0635V55.805C81.5107 60.3424 79.8159 63.6803 76.4792 65.8186H76.5851Z" fill="#018CF1"/>
<path d="M115.248 37.864H124.57C124.941 37.864 125.259 37.9683 125.523 38.229C125.788 38.4898 125.947 38.7506 125.947 39.0635V67.7483C125.947 68.0612 125.788 68.3742 125.523 68.5828C125.259 68.8435 124.941 68.9479 124.57 68.9479H115.301C114.931 68.9479 114.613 68.8435 114.348 68.5828C114.083 68.3742 113.924 68.0612 113.924 67.7483V53.9796L110.217 60.3946C110.005 60.7596 109.687 61.0204 109.317 61.229C108.893 61.4376 108.522 61.542 108.098 61.542H104.603C104.02 61.542 103.543 61.3855 103.173 61.1247C102.802 60.864 102.537 60.6032 102.431 60.3946L98.7238 53.9796V67.7483C98.7238 68.0612 98.5649 68.3742 98.3001 68.5828C98.0353 68.8435 97.7175 68.9479 97.3468 68.9479H88.1311C87.7604 68.9479 87.4426 68.8435 87.1778 68.5828C86.913 68.3742 86.7541 68.0612 86.7541 67.7483V39.0635C86.7541 38.7506 86.913 38.4376 87.1778 38.229C87.4426 38.0204 87.7604 37.864 88.1311 37.864H97.4527C98.406 37.864 99.1475 38.2812 99.6772 39.0635L106.351 49.703L113.024 39.0635C113.554 38.2812 114.242 37.864 115.248 37.864Z" fill="#018CF1"/>
</g>
<defs>
<clipPath id="clip0_1_1745">
<rect width="126" height="69" fill="white"/>
</clipPath>
</defs>
</svg>
