<svg width="146" height="81" viewBox="0 0 146 81" fill="none" xmlns="http://www.w3.org/2000/svg">
<g clip-path="url(#clip0_1_1755)">
<path d="M33.0172 0H43.8184C44.248 0 44.6162 0.122449 44.9231 0.428571C45.2299 0.734694 45.414 1.04082 45.414 1.40816V35.0816C45.414 35.449 45.2299 35.8163 44.9231 36.0612C44.6162 36.3673 44.248 36.4898 43.8184 36.4898H33.0786C32.649 36.4898 32.2808 36.3673 31.9739 36.0612C31.6671 35.8163 31.483 35.449 31.483 35.0816V18.9184L27.1871 26.449C26.9416 26.8776 26.5734 27.1837 26.1438 27.4286C25.6528 27.6735 25.2232 27.7959 24.7322 27.7959H20.6818C20.0067 27.7959 19.4544 27.6122 19.0248 27.3061C18.5952 27 18.2884 26.6939 18.1656 26.449L13.8697 18.9184V35.0816C13.8697 35.449 13.6856 35.8163 13.3787 36.0612C13.0719 36.3673 12.7037 36.4898 12.2741 36.4898H1.59563C1.16604 36.4898 0.797814 36.3673 0.490963 36.0612C0.184111 35.8163 0 35.449 0 35.0816V1.46939C0 1.10204 0.184111 0.734694 0.490963 0.489796C0.797814 0.183673 1.16604 0 1.59563 0H12.3968C13.5015 0 14.3607 0.489796 14.9744 1.40816L22.707 13.898L30.4397 1.46939C31.0534 0.55102 31.8512 0.0612245 33.0172 0.0612245V0Z" fill="white"/>
<path d="M68.5506 26.3877H92.1782C92.6078 26.3877 92.976 26.5102 93.2829 26.8163C93.5897 27.1224 93.7738 27.4286 93.7738 27.7959V35.1428C93.7738 35.5102 93.5897 35.8775 93.2829 36.1224C92.976 36.4286 92.6078 36.551 92.1782 36.551H54.8037C54.3741 36.551 54.0059 36.4286 53.699 36.1224C53.3922 35.8775 53.2081 35.5102 53.2081 35.1428V1.46938C53.2081 1.10203 53.3922 0.734688 53.699 0.48979C54.0059 0.244892 54.3741 0.0612183 54.8037 0.0612183H91.5645C91.9941 0.0612183 92.3623 0.183667 92.6692 0.48979C92.976 0.795912 93.1601 1.10203 93.1601 1.46938V8.81632C93.1601 9.18367 92.976 9.55101 92.6692 9.79591C92.3623 10.102 91.9941 10.2245 91.5645 10.2245H68.5506V13.5306H88.3119C88.7415 13.5306 89.1097 13.6531 89.4166 13.9592C89.7234 14.2041 89.9075 14.5714 89.9075 14.9388V21.7347C89.9075 22.102 89.7234 22.4694 89.4166 22.7143C89.1097 22.9592 88.7415 23.1429 88.3119 23.1429H68.5506V26.449V26.3877Z" fill="white"/>
<path d="M145.264 15.1837V21.3673C145.264 24.8571 144.282 27.7959 142.318 30.1224C140.354 32.449 137.776 34.102 134.585 35.0816C131.394 36.0612 127.65 36.551 123.293 36.551C118.936 36.551 115.192 36.0612 112.001 35.0816C108.81 34.102 106.232 32.449 104.268 30.1224C102.304 27.7959 101.322 24.8571 101.322 21.3061V15.3061C101.322 10.2245 103.348 6.36735 107.459 3.79592C111.571 1.22449 116.849 0 123.354 0C129.86 0 135.137 1.28571 139.249 3.79592C143.361 6.30612 145.386 10.102 145.386 15.1837H145.264ZM117.217 14.3265V22.2245C117.217 23.5714 117.77 24.6122 118.813 25.3469C119.856 26.0816 121.39 26.449 123.232 26.449C125.073 26.449 126.546 26.0816 127.65 25.3469C128.755 24.6122 129.246 23.5714 129.246 22.2245V14.449C129.246 13.102 128.694 12.0612 127.65 11.3265C126.546 10.5918 125.073 10.2245 123.232 10.2245C121.39 10.2245 119.918 10.5918 118.813 11.3265C117.708 12.0612 117.217 13.102 117.217 14.449V14.3265Z" fill="white"/>
<path d="M33.0172 44.449H43.8184C44.248 44.449 44.6162 44.5714 44.9231 44.8775C45.2299 45.1837 45.414 45.4898 45.414 45.8571V79.5306C45.414 79.8979 45.2299 80.2653 44.9231 80.5102C44.6162 80.8163 44.248 80.9388 43.8184 80.9388H33.0786C32.649 80.9388 32.2808 80.8163 31.9739 80.5102C31.6671 80.2653 31.483 79.8979 31.483 79.5306V63.3673L27.1871 70.898C26.9416 71.3265 26.5734 71.6326 26.1438 71.8775C25.6528 72.1224 25.2232 72.2449 24.7322 72.2449H20.6818C20.0067 72.2449 19.4544 72.0612 19.0248 71.7551C18.5952 71.449 18.2884 71.1429 18.1656 70.898L13.8697 63.3673V79.5306C13.8697 79.8979 13.6856 80.2653 13.3787 80.5102C13.0719 80.8163 12.7037 80.9388 12.2741 80.9388H1.59563C1.16604 80.9388 0.797814 80.8163 0.490963 80.5102C0.184111 80.2653 0 79.8979 0 79.5306V45.8571C0 45.4898 0.184111 45.1224 0.490963 44.8775C0.797814 44.6326 1.16604 44.449 1.59563 44.449H12.3968C13.5015 44.449 14.3607 44.9388 14.9744 45.8571L22.707 58.3469L30.4397 45.8571C31.0534 44.9388 31.8512 44.449 33.0172 44.449Z" fill="white"/>
<path d="M88.7415 77.2653C84.8752 79.7755 79.5973 81 72.9693 81C66.3413 81 61.0635 79.7143 57.1971 77.2653C53.3308 74.7551 51.367 70.8367 51.367 65.5102V45.8571C51.367 45.4898 51.5511 45.1224 51.8579 44.8775C52.1648 44.6326 52.533 44.449 52.9626 44.449H65.298C65.7276 44.449 66.0958 44.5714 66.4027 44.8775C66.7095 45.1224 66.8936 45.4898 66.8936 45.8571V66.2449C66.8936 67.6531 67.446 68.6939 68.4893 69.4898C69.5939 70.2245 71.0668 70.5918 72.9079 70.5918C74.7491 70.5918 76.2219 70.2245 77.3266 69.4898C78.4313 68.7551 78.9222 67.6531 78.9222 66.2449V45.8571C78.9222 45.4898 79.1063 45.1837 79.4132 44.8775C79.72 44.5714 80.0883 44.449 80.5179 44.449H92.8533C93.2829 44.449 93.6511 44.5714 93.958 44.8775C94.2648 45.1224 94.4489 45.4898 94.4489 45.8571V65.5102C94.4489 70.8367 92.4851 74.7551 88.6187 77.2653H88.7415Z" fill="white"/>
<path d="M133.542 44.449H144.343C144.773 44.449 145.141 44.5714 145.448 44.8775C145.755 45.1837 145.939 45.4898 145.939 45.8571V79.5306C145.939 79.8979 145.755 80.2653 145.448 80.5102C145.141 80.8163 144.773 80.9388 144.343 80.9388H133.603C133.174 80.9388 132.805 80.8163 132.499 80.5102C132.192 80.2653 132.008 79.8979 132.008 79.5306V63.3673L127.712 70.898C127.466 71.3265 127.098 71.6326 126.668 71.8775C126.177 72.1224 125.748 72.2449 125.257 72.2449H121.206C120.531 72.2449 119.979 72.0612 119.549 71.7551C119.12 71.449 118.813 71.1429 118.69 70.898L114.394 63.3673V79.5306C114.394 79.8979 114.21 80.2653 113.903 80.5102C113.596 80.8163 113.228 80.9388 112.799 80.9388H102.12C101.691 80.9388 101.322 80.8163 101.016 80.5102C100.709 80.2653 100.525 79.8979 100.525 79.5306V45.8571C100.525 45.4898 100.709 45.1224 101.016 44.8775C101.322 44.6326 101.691 44.449 102.12 44.449H112.921C114.026 44.449 114.885 44.9388 115.499 45.8571L123.232 58.3469L130.964 45.8571C131.578 44.9388 132.376 44.449 133.542 44.449Z" fill="white"/>
</g>
<defs>
<clipPath id="clip0_1_1755">
<rect width="146" height="81" fill="white"/>
</clipPath>
</defs>
</svg>
