<svg width="18" height="18" viewBox="0 0 18 18" fill="none" xmlns="http://www.w3.org/2000/svg">
<g filter="url(#filter0_f_5949_59)">
<path d="M-0.103943 9.03833C-0.094398 10.472 0.314107 11.9511 0.932448 13.1452V13.1534C1.37923 14.0205 1.98985 14.7055 2.68533 15.3842L6.88589 13.8515C6.09117 13.4478 5.96991 13.2005 5.40022 12.7491C4.81805 12.1621 4.38416 11.4881 4.11395 10.6979H4.10306L4.11395 10.6897C3.93618 10.1679 3.91864 9.61398 3.91208 9.03833H-0.103943Z" fill="url(#paint0_radial_5949_59)"/>
</g>
<g filter="url(#filter1_f_5949_59)">
<path d="M9.22031 -0.0874634C8.80513 1.37113 8.96387 2.78893 9.22031 3.61387C9.69975 3.61423 10.1616 3.67138 10.5995 3.78523C11.6035 4.04624 12.3136 4.56032 12.7488 4.96694L15.4417 2.32986C13.8464 0.86716 11.9265 -0.0851588 9.22031 -0.0874634Z" fill="url(#paint1_radial_5949_59)"/>
</g>
<g filter="url(#filter2_f_5949_59)">
<path d="M9.2113 -0.098999C7.17482 -0.0990431 5.29465 0.535468 3.75392 1.60781C3.18184 2.00598 2.65686 2.46592 2.18939 2.97739C2.06693 4.12628 3.10613 5.53839 5.16408 5.52671C6.16258 4.36522 7.63934 3.61374 9.28298 3.61374C9.28448 3.61374 9.28594 3.61387 9.28744 3.61387L9.22031 -0.0987362C9.21728 -0.0987381 9.21434 -0.098999 9.2113 -0.098999Z" fill="url(#paint2_radial_5949_59)"/>
</g>
<g filter="url(#filter3_f_5949_59)">
<path d="M15.9328 9.45406L14.1151 10.7028C14.0354 11.1925 13.8561 11.6742 13.5938 12.1135C13.2933 12.6168 12.9219 13 12.5411 13.2917C11.4028 14.164 10.0765 14.3436 9.15317 14.3443C8.19884 15.9697 8.03152 16.7839 9.22029 18.0957C10.6913 18.0946 11.9954 17.8291 13.1456 17.3318C13.9771 16.9724 14.7138 16.5036 15.3808 15.901C16.2621 15.1049 16.9525 14.1201 17.4236 12.9872C17.8947 11.8542 18.1466 10.5731 18.1466 9.18402L15.9328 9.45406Z" fill="url(#paint3_radial_5949_59)"/>
</g>
<g filter="url(#filter4_f_5949_59)">
<path d="M9.08606 7.17682V10.9H17.8315C17.9084 10.3901 18.1628 9.73025 18.1628 9.18402C18.1628 8.54569 18.0987 7.766 17.99 7.17682H9.08606Z" fill="#3086FF"/>
</g>
<g filter="url(#filter5_f_5949_59)">
<path d="M2.23109 2.84595C1.69141 3.43643 1.23036 4.09735 0.864795 4.81213C0.237629 6.03456 -0.105774 7.5207 -0.105774 8.97724C-0.105774 8.99777 -0.104075 9.01785 -0.103938 9.03834C0.173814 9.57089 3.73271 9.46891 3.91209 9.03834C3.91186 9.01825 3.9096 8.99866 3.9096 8.97852C3.9096 8.38112 4.01053 7.94078 4.1945 7.40068C4.42144 6.73448 4.77679 6.12099 5.23118 5.59243C5.33419 5.46092 5.60894 5.17821 5.6891 5.00864C5.71964 4.94405 5.63367 4.90779 5.62886 4.88506C5.62348 4.85963 5.50821 4.88008 5.48239 4.86114C5.4004 4.80099 5.23804 4.76959 5.13944 4.74167C4.92872 4.68201 4.57948 4.55042 4.3855 4.41402C3.77234 3.98286 2.81545 3.46784 2.23109 2.84595Z" fill="url(#paint4_radial_5949_59)"/>
</g>
<g filter="url(#filter6_f_5949_59)">
<path d="M4.39864 4.88758C5.8205 5.74887 6.2294 4.45284 7.17473 4.04728L5.53029 0.637146C4.92538 0.891392 4.35385 1.20727 3.82356 1.57634C3.03162 2.12753 2.33228 2.80013 1.75458 3.56557L4.39864 4.88758Z" fill="url(#paint5_radial_5949_59)"/>
</g>
<g filter="url(#filter7_f_5949_59)">
<path d="M4.97739 13.5881C3.06874 14.2771 2.76993 14.3019 2.59424 15.4847C2.92998 15.8123 3.2907 16.1154 3.67403 16.3902C4.70261 17.1275 6.68115 18.1095 9.21153 18.1095C9.21451 18.1095 9.21735 18.1092 9.22032 18.1092V14.2786C9.2184 14.2786 9.2162 14.2788 9.21429 14.2788C8.26675 14.2788 7.50957 14.0299 6.73323 13.5971C6.54181 13.4904 6.19454 13.7769 6.01801 13.6488C5.77453 13.4722 5.18857 13.801 4.97739 13.5881Z" fill="url(#paint6_radial_5949_59)"/>
</g>
<g opacity="0.5" filter="url(#filter8_f_5949_59)">
<path d="M8.10248 14.158V18.0428C8.45652 18.0843 8.82498 18.1095 9.2115 18.1095C9.59897 18.1095 9.97383 18.0896 10.3381 18.053V14.1841C9.92989 14.2539 9.54543 14.2787 9.21425 14.2787C8.83283 14.2787 8.46189 14.2343 8.10248 14.158Z" fill="url(#paint7_linear_5949_59)"/>
</g>
<defs>
<filter id="filter0_f_5949_59" x="-0.574022" y="8.56825" width="7.92997" height="7.28604" filterUnits="userSpaceOnUse" color-interpolation-filters="sRGB">
<feFlood flood-opacity="0" result="BackgroundImageFix"/>
<feBlend mode="normal" in="SourceGraphic" in2="BackgroundImageFix" result="shape"/>
<feGaussianBlur stdDeviation="0.23504" result="effect1_foregroundBlur_5949_59"/>
</filter>
<filter id="filter1_f_5949_59" x="8.49495" y="-0.557543" width="7.41678" height="5.99454" filterUnits="userSpaceOnUse" color-interpolation-filters="sRGB">
<feFlood flood-opacity="0" result="BackgroundImageFix"/>
<feBlend mode="normal" in="SourceGraphic" in2="BackgroundImageFix" result="shape"/>
<feGaussianBlur stdDeviation="0.23504" result="effect1_foregroundBlur_5949_59"/>
</filter>
<filter id="filter2_f_5949_59" x="1.70961" y="-0.569078" width="8.04789" height="6.56595" filterUnits="userSpaceOnUse" color-interpolation-filters="sRGB">
<feFlood flood-opacity="0" result="BackgroundImageFix"/>
<feBlend mode="normal" in="SourceGraphic" in2="BackgroundImageFix" result="shape"/>
<feGaussianBlur stdDeviation="0.23504" result="effect1_foregroundBlur_5949_59"/>
</filter>
<filter id="filter3_f_5949_59" x="7.91255" y="8.71394" width="10.7042" height="9.85184" filterUnits="userSpaceOnUse" color-interpolation-filters="sRGB">
<feFlood flood-opacity="0" result="BackgroundImageFix"/>
<feBlend mode="normal" in="SourceGraphic" in2="BackgroundImageFix" result="shape"/>
<feGaussianBlur stdDeviation="0.23504" result="effect1_foregroundBlur_5949_59"/>
</filter>
<filter id="filter4_f_5949_59" x="8.61598" y="6.70674" width="10.0169" height="4.6633" filterUnits="userSpaceOnUse" color-interpolation-filters="sRGB">
<feFlood flood-opacity="0" result="BackgroundImageFix"/>
<feBlend mode="normal" in="SourceGraphic" in2="BackgroundImageFix" result="shape"/>
<feGaussianBlur stdDeviation="0.23504" result="effect1_foregroundBlur_5949_59"/>
</filter>
<filter id="filter5_f_5949_59" x="-0.575853" y="2.37587" width="6.74155" height="7.49472" filterUnits="userSpaceOnUse" color-interpolation-filters="sRGB">
<feFlood flood-opacity="0" result="BackgroundImageFix"/>
<feBlend mode="normal" in="SourceGraphic" in2="BackgroundImageFix" result="shape"/>
<feGaussianBlur stdDeviation="0.23504" result="effect1_foregroundBlur_5949_59"/>
</filter>
<filter id="filter6_f_5949_59" x="-1.55027" y="-2.6677" width="12.0299" height="11.1496" filterUnits="userSpaceOnUse" color-interpolation-filters="sRGB">
<feFlood flood-opacity="0" result="BackgroundImageFix"/>
<feBlend mode="normal" in="SourceGraphic" in2="BackgroundImageFix" result="shape"/>
<feGaussianBlur stdDeviation="1.65243" result="effect1_foregroundBlur_5949_59"/>
</filter>
<filter id="filter7_f_5949_59" x="2.12416" y="13.1027" width="7.56626" height="5.4769" filterUnits="userSpaceOnUse" color-interpolation-filters="sRGB">
<feFlood flood-opacity="0" result="BackgroundImageFix"/>
<feBlend mode="normal" in="SourceGraphic" in2="BackgroundImageFix" result="shape"/>
<feGaussianBlur stdDeviation="0.23504" result="effect1_foregroundBlur_5949_59"/>
</filter>
<filter id="filter8_f_5949_59" x="7.6324" y="13.6879" width="3.17575" height="4.89164" filterUnits="userSpaceOnUse" color-interpolation-filters="sRGB">
<feFlood flood-opacity="0" result="BackgroundImageFix"/>
<feBlend mode="normal" in="SourceGraphic" in2="BackgroundImageFix" result="shape"/>
<feGaussianBlur stdDeviation="0.23504" result="effect1_foregroundBlur_5949_59"/>
</filter>
<radialGradient id="paint0_radial_5949_59" cx="0" cy="0" r="1" gradientTransform="matrix(-0.374041 -8.96393 13.4483 -0.537918 6.8018 15.2492)" gradientUnits="userSpaceOnUse">
<stop offset="0.141612" stop-color="#1ABD4D"/>
<stop offset="0.247515" stop-color="#6EC30D"/>
<stop offset="0.311547" stop-color="#8AC502"/>
<stop offset="0.366013" stop-color="#A2C600"/>
<stop offset="0.445673" stop-color="#C8C903"/>
<stop offset="0.540305" stop-color="#EBCB03"/>
<stop offset="0.615636" stop-color="#F7CD07"/>
<stop offset="0.699345" stop-color="#FDCD04"/>
<stop offset="0.771242" stop-color="#FDCE05"/>
<stop offset="0.860566" stop-color="#FFCE0A"/>
</radialGradient>
<radialGradient id="paint1_radial_5949_59" cx="0" cy="0" r="1" gradientTransform="matrix(6.35225 -1.52668e-05 -8.92834e-06 8.03195 15.1897 4.77614)" gradientUnits="userSpaceOnUse">
<stop offset="0.408458" stop-color="#FB4E5A"/>
<stop offset="1" stop-color="#FF4540"/>
</radialGradient>
<radialGradient id="paint2_radial_5949_59" cx="0" cy="0" r="1" gradientTransform="matrix(-8.89996 4.82619 6.68907 11.8245 11.7207 -1.26165)" gradientUnits="userSpaceOnUse">
<stop offset="0.231273" stop-color="#FF4541"/>
<stop offset="0.311547" stop-color="#FF4540"/>
<stop offset="0.457516" stop-color="#FF4640"/>
<stop offset="0.540305" stop-color="#FF473F"/>
<stop offset="0.699346" stop-color="#FF5138"/>
<stop offset="0.771242" stop-color="#FF5B33"/>
<stop offset="0.860566" stop-color="#FF6C29"/>
<stop offset="1" stop-color="#FF8C18"/>
</radialGradient>
<radialGradient id="paint3_radial_5949_59" cx="0" cy="0" r="1" gradientTransform="matrix(-16.1403 -20.6285 -7.77723 5.83314 9.35261 16.9307)" gradientUnits="userSpaceOnUse">
<stop offset="0.131546" stop-color="#0CBA65"/>
<stop offset="0.209784" stop-color="#0BB86D"/>
<stop offset="0.297297" stop-color="#09B479"/>
<stop offset="0.396257" stop-color="#08AD93"/>
<stop offset="0.477124" stop-color="#0AA6A9"/>
<stop offset="0.568425" stop-color="#0D9CC6"/>
<stop offset="0.667385" stop-color="#1893DD"/>
<stop offset="0.768727" stop-color="#258BF1"/>
<stop offset="0.858506" stop-color="#3086FF"/>
</radialGradient>
<radialGradient id="paint4_radial_5949_59" cx="0" cy="0" r="1" gradientTransform="matrix(-1.14221 9.63913 13.6126 1.54626 8.43155 1.60105)" gradientUnits="userSpaceOnUse">
<stop offset="0.366013" stop-color="#FF4E3A"/>
<stop offset="0.457516" stop-color="#FF8A1B"/>
<stop offset="0.540305" stop-color="#FFA312"/>
<stop offset="0.615636" stop-color="#FFB60C"/>
<stop offset="0.771242" stop-color="#FFCD0A"/>
<stop offset="0.860566" stop-color="#FECF0A"/>
<stop offset="0.915033" stop-color="#FECF08"/>
<stop offset="1" stop-color="#FDCD01"/>
</radialGradient>
<radialGradient id="paint5_radial_5949_59" cx="0" cy="0" r="1" gradientTransform="matrix(-3.30159 3.57508 -10.2992 -9.11745 6.82527 1.50104)" gradientUnits="userSpaceOnUse">
<stop offset="0.315904" stop-color="#FF4C3C"/>
<stop offset="0.603818" stop-color="#FF692C"/>
<stop offset="0.726837" stop-color="#FF7825"/>
<stop offset="0.884534" stop-color="#FF8D1B"/>
<stop offset="1" stop-color="#FF9F13"/>
</radialGradient>
<radialGradient id="paint6_radial_5949_59" cx="0" cy="0" r="1" gradientTransform="matrix(-8.89996 -4.82619 6.68907 -11.8245 11.7207 19.2174)" gradientUnits="userSpaceOnUse">
<stop offset="0.231273" stop-color="#0FBC5F"/>
<stop offset="0.311547" stop-color="#0FBC5F"/>
<stop offset="0.366013" stop-color="#0FBC5E"/>
<stop offset="0.457516" stop-color="#0FBC5D"/>
<stop offset="0.540305" stop-color="#12BC58"/>
<stop offset="0.699346" stop-color="#28BF3C"/>
<stop offset="0.771242" stop-color="#38C02B"/>
<stop offset="0.860566" stop-color="#52C218"/>
<stop offset="0.915033" stop-color="#67C30F"/>
<stop offset="1" stop-color="#86C504"/>
</radialGradient>
<linearGradient id="paint7_linear_5949_59" x1="8.10248" y1="16.1337" x2="10.3381" y2="16.1337" gradientUnits="userSpaceOnUse">
<stop stop-color="#0FBC5C"/>
<stop offset="1" stop-color="#0CBA65"/>
</linearGradient>
</defs>
</svg>
